<svg xmlns="http://www.w3.org/2000/svg" width="100" height="100" viewBox="0 0 100 100">
  <rect width="100" height="100" fill="#f8f9fa" />
  <g transform="translate(25, 25) scale(0.5)">
    <path d="M4 16l4.586-4.586a2 2 0 012.828 0L16 16m-2-2l1.586-1.586a2 2 0 012.828 0L20 14m-6-6h.01M6 20h12a2 2 0 002-2V6a2 2 0 00-2-2H6a2 2 0 00-2 2v12a2 2 0 002 2z" stroke="#adb5bd" stroke-width="2" stroke-linecap="round" stroke-linejoin="round" fill="none" transform="scale(3.33)"/>
  </g>
  <text x="50" y="85" font-family="sans-serif" font-size="10" fill="#adb5bd" text-anchor="middle">NO IMAGE</text>
</svg>
